<svg id="visual" viewBox="0 0 900 600" width="900" height="600" xmlns="http://www.w3.org/2000/svg" xmlns:xlink="http://www.w3.org/1999/xlink" version="1.1"><rect x="0" y="0" width="900" height="600" fill="#FCAF3C"></rect><g transform="translate(103.08883378307615 645.2555701841382)"><path d="M261.9 -486.2C346.5 -404.8 427 -348.9 451.4 -272.1C475.8 -195.3 444.2 -97.7 437.2 -4C430.3 89.7 448.1 179.3 448.1 298.4C448.1 417.5 430.3 566 352.7 596.8C275 627.6 137.5 540.8 20.6 505.2C-96.3 469.5 -192.7 485 -267.4 452.5C-342.2 420 -395.4 339.5 -460.2 256.1C-525.1 172.7 -601.5 86.3 -639.9 -22.2C-678.3 -130.7 -678.6 -261.3 -619.8 -355.2C-561 -449 -443 -505.9 -329.8 -570.8C-216.7 -635.6 -108.3 -708.3 -9.8 -691.3C88.7 -674.2 177.3 -567.5 261.9 -486.2" fill="#F7770F"></path></g></svg>