<svg id="visual" viewBox="0 0 900 600" width="900" height="600" xmlns="http://www.w3.org/2000/svg" xmlns:xlink="http://www.w3.org/1999/xlink" version="1.1"><g transform="translate(24.23482275251132 600.822932714369)"><path d="M321.4 -533.9C429.6 -494.3 539.1 -434.4 571.6 -342C604.1 -249.7 559.6 -124.8 544 -9C528.4 106.8 541.7 213.7 502.7 294.6C463.6 375.6 372 430.7 279.5 503.1C187 575.6 93.5 665.3 3.8 658.7C-85.9 652.2 -171.9 549.4 -271.3 481C-370.8 412.5 -483.7 378.5 -526.8 304.1C-569.8 229.7 -542.9 114.8 -561.9 -11C-581 -136.8 -646 -273.7 -628.8 -392.7C-611.5 -511.8 -512 -613.1 -393.5 -646.7C-275 -680.3 -137.5 -646.2 -15.4 -619.5C106.7 -592.8 213.3 -573.5 321.4 -533.9" fill="#F7770F"></path></g></svg>